<?xml version="1.0" encoding="utf-8"?>
<!-- Generator: Adobe Illustrator 26.2.1, SVG Export Plug-In . SVG Version: 6.00 Build 0)  -->
<svg version="1.1" id="Ebene_1" xmlns="http://www.w3.org/2000/svg" xmlns:xlink="http://www.w3.org/1999/xlink" x="0px" y="0px"
	 viewBox="0 0 16 16" style="enable-background:new 0 0 16 16;" xml:space="preserve">
<style type="text/css">
	.st0{fill:#0000FF;}
	.st1{fill:#FFFFFF;}
</style>
<rect x="0" y="-0.1" class="st0" width="16" height="16"/>
<g>
	<path class="st1" d="M8,11.3C5,11.3,2.5,8.9,1.7,8C2.5,7.1,5,4.7,8,4.7c2.9,0,5.5,2.4,6.3,3.3C13.4,8.9,10.9,11.3,8,11.3z"/>
	<path d="M8,5.2c2.4,0,4.6,1.8,5.6,2.8c-1,1-3.2,2.8-5.6,2.8C5.6,10.8,3.4,9,2.4,8C3.4,7,5.6,5.2,8,5.2 M8,4.2C4.1,4.2,1,8,1,8
		s3.1,3.8,7,3.8s7-3.8,7-3.8S11.8,4.2,8,4.2L8,4.2z"/>
</g>
<g>
	<circle cx="8" cy="8" r="2.4"/>
</g>
</svg>
